<mxfile host="app.diagrams.net" modified="2023-12-21T03:33:59.128Z" agent="Mozilla/5.0 (X11; Ubuntu; Linux x86_64; rv:109.0) Gecko/20100101 Firefox/116.0" etag="MAnDGaANhdt8o2pt75TI" version="22.1.11" type="github" pages="2">
  <diagram name="REINFORCE" id="wOIUFvS3HHqLQGJgAhAG">
    <mxGraphModel dx="1185" dy="748" grid="1" gridSize="10" guides="1" tooltips="1" connect="1" arrows="1" fold="1" page="1" pageScale="1" pageWidth="827" pageHeight="1169" math="1" shadow="0">
      <root>
        <mxCell id="0" />
        <mxCell id="1" parent="0" />
        <mxCell id="fZpdlVV125Asqxg7zFFb-1" style="edgeStyle=orthogonalEdgeStyle;rounded=0;orthogonalLoop=1;jettySize=auto;html=1;shadow=1;" edge="1" parent="1" source="fZpdlVV125Asqxg7zFFb-5" target="fZpdlVV125Asqxg7zFFb-15">
          <mxGeometry relative="1" as="geometry">
            <Array as="points">
              <mxPoint x="354" y="610" />
              <mxPoint x="354" y="610" />
            </Array>
          </mxGeometry>
        </mxCell>
        <mxCell id="fZpdlVV125Asqxg7zFFb-2" style="edgeStyle=orthogonalEdgeStyle;rounded=0;orthogonalLoop=1;jettySize=auto;html=1;" edge="1" parent="1" target="fZpdlVV125Asqxg7zFFb-30">
          <mxGeometry relative="1" as="geometry">
            <mxPoint x="374" y="510" as="sourcePoint" />
            <mxPoint x="454" y="440" as="targetPoint" />
            <Array as="points">
              <mxPoint x="474" y="510" />
              <mxPoint x="474" y="450" />
            </Array>
          </mxGeometry>
        </mxCell>
        <mxCell id="fZpdlVV125Asqxg7zFFb-3" style="edgeStyle=orthogonalEdgeStyle;rounded=0;orthogonalLoop=1;jettySize=auto;html=1;" edge="1" parent="1" source="fZpdlVV125Asqxg7zFFb-5" target="fZpdlVV125Asqxg7zFFb-30">
          <mxGeometry relative="1" as="geometry">
            <Array as="points">
              <mxPoint x="494" y="540" />
              <mxPoint x="494" y="420" />
            </Array>
          </mxGeometry>
        </mxCell>
        <mxCell id="fZpdlVV125Asqxg7zFFb-4" style="edgeStyle=orthogonalEdgeStyle;rounded=0;orthogonalLoop=1;jettySize=auto;html=1;" edge="1" parent="1" source="fZpdlVV125Asqxg7zFFb-5" target="fZpdlVV125Asqxg7zFFb-30">
          <mxGeometry relative="1" as="geometry">
            <Array as="points">
              <mxPoint x="514" y="570" />
              <mxPoint x="514" y="380" />
            </Array>
          </mxGeometry>
        </mxCell>
        <mxCell id="fZpdlVV125Asqxg7zFFb-5" value="环境" style="rounded=0;whiteSpace=wrap;html=1;fillColor=#f5f5f5;fontColor=#333333;strokeColor=#666666;shadow=1;" vertex="1" parent="1">
          <mxGeometry x="214" y="500" width="160" height="80" as="geometry" />
        </mxCell>
        <mxCell id="fZpdlVV125Asqxg7zFFb-6" style="edgeStyle=none;rounded=0;orthogonalLoop=1;jettySize=auto;html=1;entryX=0;entryY=0.5;entryDx=0;entryDy=0;" edge="1" parent="1" source="fZpdlVV125Asqxg7zFFb-7" target="fZpdlVV125Asqxg7zFFb-30">
          <mxGeometry relative="1" as="geometry" />
        </mxCell>
        <mxCell id="fZpdlVV125Asqxg7zFFb-7" value="`S_1`" style="text;strokeColor=none;align=center;fillColor=none;html=1;verticalAlign=middle;whiteSpace=wrap;rounded=0;shadow=1;" vertex="1" parent="1">
          <mxGeometry x="94" y="390" width="20" height="20" as="geometry" />
        </mxCell>
        <mxCell id="fZpdlVV125Asqxg7zFFb-8" value="`a_1`" style="text;strokeColor=none;align=center;fillColor=none;html=1;verticalAlign=middle;whiteSpace=wrap;rounded=0;shadow=1;" vertex="1" parent="1">
          <mxGeometry x="204" y="470" width="20" height="20" as="geometry" />
        </mxCell>
        <mxCell id="fZpdlVV125Asqxg7zFFb-9" value="`S_2`" style="text;strokeColor=none;align=center;fillColor=none;html=1;verticalAlign=middle;whiteSpace=wrap;rounded=0;shadow=1;" vertex="1" parent="1">
          <mxGeometry x="384" y="490" width="20" height="20" as="geometry" />
        </mxCell>
        <mxCell id="fZpdlVV125Asqxg7zFFb-10" value="`a_2`" style="text;strokeColor=none;align=center;fillColor=none;html=1;verticalAlign=middle;whiteSpace=wrap;rounded=0;shadow=1;" vertex="1" parent="1">
          <mxGeometry x="234" y="470" width="20" height="20" as="geometry" />
        </mxCell>
        <mxCell id="fZpdlVV125Asqxg7zFFb-11" value="`S_3`" style="text;strokeColor=none;align=center;fillColor=none;html=1;verticalAlign=middle;whiteSpace=wrap;rounded=0;shadow=1;" vertex="1" parent="1">
          <mxGeometry x="394" y="520" width="20" height="20" as="geometry" />
        </mxCell>
        <mxCell id="fZpdlVV125Asqxg7zFFb-12" value="`a_{n-1}`" style="text;strokeColor=none;align=center;fillColor=none;html=1;verticalAlign=middle;whiteSpace=wrap;rounded=0;shadow=1;" vertex="1" parent="1">
          <mxGeometry x="284" y="470" width="30" height="20" as="geometry" />
        </mxCell>
        <mxCell id="fZpdlVV125Asqxg7zFFb-13" value="`S_{n-1}`" style="text;strokeColor=none;align=center;fillColor=none;html=1;verticalAlign=middle;whiteSpace=wrap;rounded=0;shadow=1;" vertex="1" parent="1">
          <mxGeometry x="414" y="550" width="30" height="20" as="geometry" />
        </mxCell>
        <mxCell id="fZpdlVV125Asqxg7zFFb-14" style="edgeStyle=orthogonalEdgeStyle;rounded=0;orthogonalLoop=1;jettySize=auto;html=1;entryX=0;entryY=0.5;entryDx=0;entryDy=0;" edge="1" parent="1" source="fZpdlVV125Asqxg7zFFb-15" target="fZpdlVV125Asqxg7zFFb-25">
          <mxGeometry relative="1" as="geometry" />
        </mxCell>
        <mxCell id="fZpdlVV125Asqxg7zFFb-15" value="&lt;div&gt;回报&lt;/div&gt;&lt;div&gt;`u_t=\sum_{k=t}^n\gamma^{k-t}\cdot r_k,\quad\forall t=1,\cdots,n.`&lt;br&gt;&lt;/div&gt;" style="rounded=0;whiteSpace=wrap;html=1;fillColor=#d5e8d4;strokeColor=#82b366;shadow=1;" vertex="1" parent="1">
          <mxGeometry x="174" y="660" width="240" height="80" as="geometry" />
        </mxCell>
        <mxCell id="fZpdlVV125Asqxg7zFFb-16" value="`a_{n}`" style="text;strokeColor=none;align=center;fillColor=none;html=1;verticalAlign=middle;whiteSpace=wrap;rounded=0;shadow=1;" vertex="1" parent="1">
          <mxGeometry x="344" y="470" width="20" height="20" as="geometry" />
        </mxCell>
        <mxCell id="fZpdlVV125Asqxg7zFFb-17" value="`r_{n}`" style="text;strokeColor=none;align=center;fillColor=none;html=1;verticalAlign=middle;whiteSpace=wrap;rounded=0;shadow=1;" vertex="1" parent="1">
          <mxGeometry x="344" y="600" width="40" height="40" as="geometry" />
        </mxCell>
        <mxCell id="fZpdlVV125Asqxg7zFFb-18" style="edgeStyle=orthogonalEdgeStyle;rounded=0;orthogonalLoop=1;jettySize=auto;html=1;shadow=1;" edge="1" parent="1">
          <mxGeometry relative="1" as="geometry">
            <mxPoint x="324" y="580" as="sourcePoint" />
            <mxPoint x="324" y="660" as="targetPoint" />
            <Array as="points">
              <mxPoint x="324" y="610" />
              <mxPoint x="324" y="610" />
            </Array>
          </mxGeometry>
        </mxCell>
        <mxCell id="fZpdlVV125Asqxg7zFFb-19" value="`r_{3}`" style="text;strokeColor=none;align=center;fillColor=none;html=1;verticalAlign=middle;whiteSpace=wrap;rounded=0;shadow=1;" vertex="1" parent="1">
          <mxGeometry x="314" y="600" width="40" height="40" as="geometry" />
        </mxCell>
        <mxCell id="fZpdlVV125Asqxg7zFFb-20" style="edgeStyle=orthogonalEdgeStyle;rounded=0;orthogonalLoop=1;jettySize=auto;html=1;shadow=1;" edge="1" parent="1">
          <mxGeometry relative="1" as="geometry">
            <mxPoint x="294" y="580" as="sourcePoint" />
            <mxPoint x="294" y="660" as="targetPoint" />
            <Array as="points">
              <mxPoint x="294" y="610" />
              <mxPoint x="294" y="610" />
            </Array>
          </mxGeometry>
        </mxCell>
        <mxCell id="fZpdlVV125Asqxg7zFFb-21" value="`r_{2}`" style="text;strokeColor=none;align=center;fillColor=none;html=1;verticalAlign=middle;whiteSpace=wrap;rounded=0;shadow=1;" vertex="1" parent="1">
          <mxGeometry x="284" y="600" width="40" height="40" as="geometry" />
        </mxCell>
        <mxCell id="fZpdlVV125Asqxg7zFFb-22" style="edgeStyle=orthogonalEdgeStyle;rounded=0;orthogonalLoop=1;jettySize=auto;html=1;shadow=1;" edge="1" parent="1">
          <mxGeometry relative="1" as="geometry">
            <mxPoint x="234" y="580" as="sourcePoint" />
            <mxPoint x="234" y="660" as="targetPoint" />
            <Array as="points">
              <mxPoint x="234" y="610" />
              <mxPoint x="234" y="610" />
            </Array>
          </mxGeometry>
        </mxCell>
        <mxCell id="fZpdlVV125Asqxg7zFFb-23" value="`r_{1}`" style="text;strokeColor=none;align=center;fillColor=none;html=1;verticalAlign=middle;whiteSpace=wrap;rounded=0;shadow=1;" vertex="1" parent="1">
          <mxGeometry x="224" y="600" width="40" height="40" as="geometry" />
        </mxCell>
        <mxCell id="fZpdlVV125Asqxg7zFFb-24" style="edgeStyle=orthogonalEdgeStyle;rounded=0;orthogonalLoop=1;jettySize=auto;html=1;entryX=0.25;entryY=0;entryDx=0;entryDy=0;" edge="1" parent="1" source="fZpdlVV125Asqxg7zFFb-25" target="fZpdlVV125Asqxg7zFFb-30">
          <mxGeometry relative="1" as="geometry">
            <Array as="points">
              <mxPoint x="654" y="290" />
              <mxPoint x="214" y="290" />
            </Array>
          </mxGeometry>
        </mxCell>
        <mxCell id="fZpdlVV125Asqxg7zFFb-25" value="&lt;div&gt;策略网络更新&lt;/div&gt;&lt;div&gt;`\theta_\text{new}\leftarrow\theta_\text{now}+\beta\cdot\sum_{t=1}^n\gamma^{t-1} \cdot \underbrace{u_t\cdot\nabla_{\theta\ln\pi(a_t,s_t;\theta_\text{now})}}_{\text{即随机梯度 }\tilde{g}(s_t,a_t;\theta_{\text{now}})}`&lt;br&gt;&lt;/div&gt;" style="rounded=0;whiteSpace=wrap;html=1;fillColor=#ffe6cc;strokeColor=#d79b00;shadow=1;" vertex="1" parent="1">
          <mxGeometry x="454" y="660" width="280" height="80" as="geometry" />
        </mxCell>
        <mxCell id="fZpdlVV125Asqxg7zFFb-26" value="`\nabla_{\theta}\ln\pi(a_t, s_t;\theta_{\text{now}}),\quad\forall=1,\cdots,n.`" style="text;strokeColor=none;align=center;fillColor=none;html=1;verticalAlign=middle;whiteSpace=wrap;rounded=0;shadow=1;" vertex="1" parent="1">
          <mxGeometry x="394" y="290" width="200" height="30" as="geometry" />
        </mxCell>
        <mxCell id="fZpdlVV125Asqxg7zFFb-27" value="`\theta_{\text{new}}`" style="text;strokeColor=none;align=center;fillColor=none;html=1;verticalAlign=middle;whiteSpace=wrap;rounded=0;shadow=1;" vertex="1" parent="1">
          <mxGeometry x="654" y="630" width="30" height="30" as="geometry" />
        </mxCell>
        <mxCell id="fZpdlVV125Asqxg7zFFb-28" value="`u_{t}`" style="text;strokeColor=none;align=center;fillColor=none;html=1;verticalAlign=middle;whiteSpace=wrap;rounded=0;shadow=1;" vertex="1" parent="1">
          <mxGeometry x="414" y="670" width="40" height="40" as="geometry" />
        </mxCell>
        <mxCell id="fZpdlVV125Asqxg7zFFb-29" value="" style="group" vertex="1" connectable="0" parent="1">
          <mxGeometry x="134" y="340" width="320" height="120" as="geometry" />
        </mxCell>
        <mxCell id="fZpdlVV125Asqxg7zFFb-30" value="&lt;div&gt;策略网络&lt;/div&gt;&lt;div&gt;&lt;br&gt;&lt;/div&gt;&lt;div&gt;&lt;br&gt;&lt;/div&gt;&lt;div&gt;&lt;br&gt;&lt;/div&gt;&lt;div&gt;&lt;br&gt;&lt;/div&gt;&lt;div&gt;&lt;br&gt;&lt;/div&gt;&lt;div&gt;`a_t\sim\pi(\cdot|s_t;\theta_\text{now})`&lt;br&gt;&lt;/div&gt;" style="rounded=0;whiteSpace=wrap;html=1;fillColor=#dae8fc;strokeColor=#6c8ebf;shadow=1;" vertex="1" parent="fZpdlVV125Asqxg7zFFb-29">
          <mxGeometry width="320" height="120" as="geometry" />
        </mxCell>
        <mxCell id="fZpdlVV125Asqxg7zFFb-31" value="" style="group" vertex="1" connectable="0" parent="fZpdlVV125Asqxg7zFFb-29">
          <mxGeometry x="20.01454545454544" y="31.384615384615387" width="280.5915151515152" height="51.69230769230769" as="geometry" />
        </mxCell>
        <mxCell id="fZpdlVV125Asqxg7zFFb-32" value="" style="rounded=0;whiteSpace=wrap;html=1;fillColor=#f5f5f5;fontColor=#333333;strokeColor=#666666;" vertex="1" parent="fZpdlVV125Asqxg7zFFb-31">
          <mxGeometry width="280.5915151515152" height="51.69230769230769" as="geometry" />
        </mxCell>
        <mxCell id="fZpdlVV125Asqxg7zFFb-33" value="" style="html=1;shape=mxgraph.basic.isocube;isoAngle=15;flipH=1;flipV=0;fillColor=#d5e8d4;strokeColor=#82b366;shadow=0;fontSize=5;sketch=1;curveFitting=1;jiggle=2;" vertex="1" parent="fZpdlVV125Asqxg7zFFb-31">
          <mxGeometry x="9.07636363636365" y="11.076923076923077" width="27.008967821346932" height="18.461538461538463" as="geometry" />
        </mxCell>
        <mxCell id="fZpdlVV125Asqxg7zFFb-34" value="巻积网络" style="rounded=0;whiteSpace=wrap;html=1;fillColor=#dae8fc;strokeColor=#6c8ebf;shadow=0;fontSize=5;sketch=1;curveFitting=1;jiggle=2;" vertex="1" parent="fZpdlVV125Asqxg7zFFb-31">
          <mxGeometry x="50.34006447453257" y="12.923076923076923" width="41.26370083816892" height="14.76923076923077" as="geometry" />
        </mxCell>
        <mxCell id="fZpdlVV125Asqxg7zFFb-35" style="rounded=0;orthogonalLoop=1;jettySize=auto;html=1;entryX=0;entryY=0.5;entryDx=0;entryDy=0;fontSize=5;sketch=1;curveFitting=1;jiggle=2;" edge="1" parent="fZpdlVV125Asqxg7zFFb-31" source="fZpdlVV125Asqxg7zFFb-33" target="fZpdlVV125Asqxg7zFFb-34">
          <mxGeometry relative="1" as="geometry" />
        </mxCell>
        <mxCell id="fZpdlVV125Asqxg7zFFb-36" value="全连接网络" style="rounded=0;whiteSpace=wrap;html=1;fillColor=#dae8fc;strokeColor=#6c8ebf;shadow=0;fontSize=5;sketch=1;curveFitting=1;jiggle=2;" vertex="1" parent="fZpdlVV125Asqxg7zFFb-31">
          <mxGeometry x="132.86746615087043" y="12.923076923076923" width="41.26370083816892" height="14.76923076923077" as="geometry" />
        </mxCell>
        <mxCell id="fZpdlVV125Asqxg7zFFb-37" value="`s`" style="text;strokeColor=none;align=center;fillColor=none;html=1;verticalAlign=middle;whiteSpace=wrap;rounded=0;shadow=0;fontSize=5;sketch=1;curveFitting=1;jiggle=2;" vertex="1" parent="fZpdlVV125Asqxg7zFFb-31">
          <mxGeometry x="14.32510638297875" y="27.692307692307693" width="16.50548033526757" height="14.76923076923077" as="geometry" />
        </mxCell>
        <mxCell id="fZpdlVV125Asqxg7zFFb-38" value="特征向量" style="text;strokeColor=none;align=center;fillColor=none;html=1;verticalAlign=middle;whiteSpace=wrap;rounded=0;shadow=0;fontSize=5;sketch=1;curveFitting=1;jiggle=2;" vertex="1" parent="fZpdlVV125Asqxg7zFFb-31">
          <mxGeometry x="99.85650548033529" y="36.92307692307693" width="24.758220502901356" height="7.384615384615385" as="geometry" />
        </mxCell>
        <mxCell id="fZpdlVV125Asqxg7zFFb-39" value="" style="group;fontSize=5;sketch=1;curveFitting=1;jiggle=2;" vertex="1" connectable="0" parent="fZpdlVV125Asqxg7zFFb-31">
          <mxGeometry x="108.10924564796906" y="5.538461538461538" width="8.252740167633785" height="29.53846153846154" as="geometry" />
        </mxCell>
        <mxCell id="fZpdlVV125Asqxg7zFFb-40" value="" style="group;fillColor=#60a917;strokeColor=#2D7600;fontColor=#ffffff;container=0;fontSize=5;sketch=1;curveFitting=1;jiggle=2;" vertex="1" connectable="0" parent="fZpdlVV125Asqxg7zFFb-39">
          <mxGeometry width="8.252740167633785" height="29.53846153846154" as="geometry" />
        </mxCell>
        <mxCell id="fZpdlVV125Asqxg7zFFb-41" value="" style="whiteSpace=wrap;html=1;aspect=fixed;fillColor=#60a917;fontColor=#ffffff;strokeColor=#2D7600;fontSize=5;sketch=1;curveFitting=1;jiggle=2;" vertex="1" parent="fZpdlVV125Asqxg7zFFb-39">
          <mxGeometry width="7.384615384615385" height="7.384615384615385" as="geometry" />
        </mxCell>
        <mxCell id="fZpdlVV125Asqxg7zFFb-42" value="" style="whiteSpace=wrap;html=1;aspect=fixed;fillColor=#60a917;fontColor=#ffffff;strokeColor=#2D7600;fontSize=5;sketch=1;curveFitting=1;jiggle=2;" vertex="1" parent="fZpdlVV125Asqxg7zFFb-39">
          <mxGeometry y="7.384615384615385" width="7.384615384615385" height="7.384615384615385" as="geometry" />
        </mxCell>
        <mxCell id="fZpdlVV125Asqxg7zFFb-43" style="edgeStyle=orthogonalEdgeStyle;rounded=0;orthogonalLoop=1;jettySize=auto;html=1;exitX=0.5;exitY=0;exitDx=0;exitDy=0;sketch=1;curveFitting=1;jiggle=2;" edge="1" parent="fZpdlVV125Asqxg7zFFb-39" source="fZpdlVV125Asqxg7zFFb-44">
          <mxGeometry relative="1" as="geometry">
            <mxPoint x="3.9128544225031328" y="14.812164579606431" as="targetPoint" />
          </mxGeometry>
        </mxCell>
        <mxCell id="fZpdlVV125Asqxg7zFFb-44" value="" style="whiteSpace=wrap;html=1;aspect=fixed;fillColor=#60a917;fontColor=#ffffff;strokeColor=#2D7600;fontSize=5;sketch=1;curveFitting=1;jiggle=2;" vertex="1" parent="fZpdlVV125Asqxg7zFFb-39">
          <mxGeometry y="14.76923076923077" width="7.384615384615385" height="7.384615384615385" as="geometry" />
        </mxCell>
        <mxCell id="fZpdlVV125Asqxg7zFFb-45" value="" style="whiteSpace=wrap;html=1;aspect=fixed;fillColor=#60a917;fontColor=#ffffff;strokeColor=#2D7600;fontSize=5;sketch=1;curveFitting=1;jiggle=2;" vertex="1" parent="fZpdlVV125Asqxg7zFFb-39">
          <mxGeometry y="22.153846153846153" width="7.384615384615385" height="7.384615384615385" as="geometry" />
        </mxCell>
        <mxCell id="fZpdlVV125Asqxg7zFFb-46" style="rounded=0;orthogonalLoop=1;jettySize=auto;html=1;entryX=0;entryY=0;entryDx=0;entryDy=0;sketch=1;curveFitting=1;jiggle=2;" edge="1" parent="fZpdlVV125Asqxg7zFFb-31" source="fZpdlVV125Asqxg7zFFb-34" target="fZpdlVV125Asqxg7zFFb-44">
          <mxGeometry relative="1" as="geometry" />
        </mxCell>
        <mxCell id="fZpdlVV125Asqxg7zFFb-47" style="rounded=0;orthogonalLoop=1;jettySize=auto;html=1;entryX=0;entryY=0.5;entryDx=0;entryDy=0;fontSize=5;sketch=1;curveFitting=1;jiggle=2;exitX=1;exitY=0;exitDx=0;exitDy=0;" edge="1" parent="fZpdlVV125Asqxg7zFFb-31" source="fZpdlVV125Asqxg7zFFb-44" target="fZpdlVV125Asqxg7zFFb-36">
          <mxGeometry relative="1" as="geometry" />
        </mxCell>
        <mxCell id="fZpdlVV125Asqxg7zFFb-48" value="&lt;div&gt;Softmax&lt;/div&gt;&lt;div&gt;激活函数&lt;br&gt;&lt;/div&gt;" style="rounded=0;whiteSpace=wrap;html=1;fillColor=#dae8fc;strokeColor=#6c8ebf;shadow=0;fontSize=5;sketch=1;curveFitting=1;jiggle=2;" vertex="1" parent="fZpdlVV125Asqxg7zFFb-31">
          <mxGeometry x="193.31837524177956" y="12.923076923076923" width="41.26370083816892" height="14.76923076923077" as="geometry" />
        </mxCell>
        <mxCell id="fZpdlVV125Asqxg7zFFb-49" style="rounded=0;orthogonalLoop=1;jettySize=auto;html=1;entryX=0;entryY=0.5;entryDx=0;entryDy=0;sketch=1;curveFitting=1;jiggle=2;" edge="1" parent="fZpdlVV125Asqxg7zFFb-31" source="fZpdlVV125Asqxg7zFFb-36" target="fZpdlVV125Asqxg7zFFb-48">
          <mxGeometry relative="1" as="geometry" />
        </mxCell>
        <mxCell id="fZpdlVV125Asqxg7zFFb-50" value="" style="whiteSpace=wrap;html=1;aspect=fixed;fillColor=#fa6800;strokeColor=#C73500;fontSize=5;sketch=1;curveFitting=1;jiggle=2;fontColor=#000000;" vertex="1" parent="fZpdlVV125Asqxg7zFFb-31">
          <mxGeometry x="253.43773049645395" y="9.230769230769232" width="7.384615384615385" height="7.384615384615385" as="geometry" />
        </mxCell>
        <mxCell id="fZpdlVV125Asqxg7zFFb-51" style="edgeStyle=orthogonalEdgeStyle;rounded=0;orthogonalLoop=1;jettySize=auto;html=1;exitX=0.5;exitY=0;exitDx=0;exitDy=0;fillColor=#fa6800;strokeColor=#C73500;sketch=1;curveFitting=1;jiggle=2;" edge="1" parent="fZpdlVV125Asqxg7zFFb-31" source="fZpdlVV125Asqxg7zFFb-52">
          <mxGeometry relative="1" as="geometry">
            <mxPoint x="257.3505849189571" y="16.658318425760278" as="targetPoint" />
          </mxGeometry>
        </mxCell>
        <mxCell id="fZpdlVV125Asqxg7zFFb-52" value="" style="whiteSpace=wrap;html=1;aspect=fixed;fillColor=#fa6800;strokeColor=#C73500;fontSize=5;sketch=1;curveFitting=1;jiggle=2;fontColor=#000000;" vertex="1" parent="fZpdlVV125Asqxg7zFFb-31">
          <mxGeometry x="253.43773049645395" y="16.615384615384617" width="7.384615384615385" height="7.384615384615385" as="geometry" />
        </mxCell>
        <mxCell id="fZpdlVV125Asqxg7zFFb-53" style="rounded=0;orthogonalLoop=1;jettySize=auto;html=1;entryX=0;entryY=0.5;entryDx=0;entryDy=0;sketch=1;curveFitting=1;jiggle=2;" edge="1" parent="fZpdlVV125Asqxg7zFFb-31" source="fZpdlVV125Asqxg7zFFb-48" target="fZpdlVV125Asqxg7zFFb-52">
          <mxGeometry relative="1" as="geometry" />
        </mxCell>
        <mxCell id="fZpdlVV125Asqxg7zFFb-54" value="" style="whiteSpace=wrap;html=1;aspect=fixed;fillColor=#fa6800;strokeColor=#C73500;fontSize=5;sketch=1;curveFitting=1;jiggle=2;fontColor=#000000;" vertex="1" parent="fZpdlVV125Asqxg7zFFb-31">
          <mxGeometry x="253.43773049645395" y="24" width="7.384615384615385" height="7.384615384615385" as="geometry" />
        </mxCell>
        <mxCell id="fZpdlVV125Asqxg7zFFb-55" value="`f=\pi(\cdot |&amp;nbsp; s;\theta)`" style="text;strokeColor=none;align=center;fillColor=none;html=1;verticalAlign=middle;whiteSpace=wrap;rounded=0;shadow=0;fontSize=5;sketch=1;curveFitting=1;jiggle=2;" vertex="1" parent="fZpdlVV125Asqxg7zFFb-31">
          <mxGeometry x="238.89454545454547" y="35.07692307692308" width="35.65575757575758" height="7.384615384615385" as="geometry" />
        </mxCell>
        <mxCell id="fZpdlVV125Asqxg7zFFb-56" style="rounded=0;orthogonalLoop=1;jettySize=auto;html=1;edgeStyle=orthogonalEdgeStyle;" edge="1" parent="1" source="fZpdlVV125Asqxg7zFFb-30" target="fZpdlVV125Asqxg7zFFb-5">
          <mxGeometry relative="1" as="geometry">
            <Array as="points">
              <mxPoint x="224" y="490" />
              <mxPoint x="224" y="490" />
            </Array>
          </mxGeometry>
        </mxCell>
        <mxCell id="fZpdlVV125Asqxg7zFFb-57" style="edgeStyle=orthogonalEdgeStyle;rounded=0;orthogonalLoop=1;jettySize=auto;html=1;" edge="1" parent="1" source="fZpdlVV125Asqxg7zFFb-30" target="fZpdlVV125Asqxg7zFFb-5">
          <mxGeometry relative="1" as="geometry">
            <Array as="points">
              <mxPoint x="254" y="480" />
              <mxPoint x="254" y="480" />
            </Array>
          </mxGeometry>
        </mxCell>
        <mxCell id="fZpdlVV125Asqxg7zFFb-58" style="edgeStyle=orthogonalEdgeStyle;rounded=0;orthogonalLoop=1;jettySize=auto;html=1;" edge="1" parent="1" source="fZpdlVV125Asqxg7zFFb-30" target="fZpdlVV125Asqxg7zFFb-5">
          <mxGeometry relative="1" as="geometry">
            <Array as="points">
              <mxPoint x="364" y="480" />
              <mxPoint x="364" y="480" />
            </Array>
          </mxGeometry>
        </mxCell>
        <mxCell id="fZpdlVV125Asqxg7zFFb-59" style="edgeStyle=orthogonalEdgeStyle;rounded=0;orthogonalLoop=1;jettySize=auto;html=1;" edge="1" parent="1" source="fZpdlVV125Asqxg7zFFb-30" target="fZpdlVV125Asqxg7zFFb-5">
          <mxGeometry relative="1" as="geometry">
            <Array as="points">
              <mxPoint x="314" y="480" />
              <mxPoint x="314" y="480" />
            </Array>
          </mxGeometry>
        </mxCell>
        <mxCell id="fZpdlVV125Asqxg7zFFb-60" style="edgeStyle=orthogonalEdgeStyle;rounded=0;orthogonalLoop=1;jettySize=auto;html=1;entryX=0.571;entryY=0;entryDx=0;entryDy=0;entryPerimeter=0;" edge="1" parent="1" source="fZpdlVV125Asqxg7zFFb-30" target="fZpdlVV125Asqxg7zFFb-25">
          <mxGeometry relative="1" as="geometry">
            <Array as="points">
              <mxPoint x="294" y="320" />
              <mxPoint x="614" y="320" />
            </Array>
          </mxGeometry>
        </mxCell>
      </root>
    </mxGraphModel>
  </diagram>
  <diagram id="ODrEXsJJAwDOYtSponNZ" name="REINFORCE with  baseline">
    <mxGraphModel dx="1430" dy="903" grid="1" gridSize="10" guides="1" tooltips="1" connect="1" arrows="1" fold="1" page="1" pageScale="1" pageWidth="827" pageHeight="1169" math="1" shadow="0">
      <root>
        <mxCell id="0" />
        <mxCell id="1" parent="0" />
        <mxCell id="AV-FN8kRpnLectql__CZ-11" style="edgeStyle=orthogonalEdgeStyle;rounded=0;orthogonalLoop=1;jettySize=auto;html=1;shadow=1;" edge="1" parent="1" source="AV-FN8kRpnLectql__CZ-12" target="AV-FN8kRpnLectql__CZ-21">
          <mxGeometry relative="1" as="geometry">
            <Array as="points">
              <mxPoint x="260" y="350" />
              <mxPoint x="260" y="350" />
            </Array>
          </mxGeometry>
        </mxCell>
        <mxCell id="AV-FN8kRpnLectql__CZ-200" style="edgeStyle=orthogonalEdgeStyle;rounded=0;orthogonalLoop=1;jettySize=auto;html=1;shadow=1;" edge="1" parent="1" target="AV-FN8kRpnLectql__CZ-171">
          <mxGeometry relative="1" as="geometry">
            <mxPoint x="280" y="250" as="sourcePoint" />
            <mxPoint x="360" y="180" as="targetPoint" />
            <Array as="points">
              <mxPoint x="380" y="250" />
              <mxPoint x="380" y="190" />
            </Array>
          </mxGeometry>
        </mxCell>
        <mxCell id="AV-FN8kRpnLectql__CZ-206" style="edgeStyle=orthogonalEdgeStyle;rounded=0;orthogonalLoop=1;jettySize=auto;html=1;shadow=1;" edge="1" parent="1" source="AV-FN8kRpnLectql__CZ-12" target="AV-FN8kRpnLectql__CZ-171">
          <mxGeometry relative="1" as="geometry">
            <Array as="points">
              <mxPoint x="400" y="280" />
              <mxPoint x="400" y="160" />
            </Array>
          </mxGeometry>
        </mxCell>
        <mxCell id="AV-FN8kRpnLectql__CZ-208" style="edgeStyle=orthogonalEdgeStyle;rounded=0;orthogonalLoop=1;jettySize=auto;html=1;shadow=1;" edge="1" parent="1" source="AV-FN8kRpnLectql__CZ-12" target="AV-FN8kRpnLectql__CZ-171">
          <mxGeometry relative="1" as="geometry">
            <Array as="points">
              <mxPoint x="420" y="310" />
              <mxPoint x="420" y="120" />
            </Array>
          </mxGeometry>
        </mxCell>
        <mxCell id="0-GCdpB-_zQCtAgoQO7X-2" style="edgeStyle=orthogonalEdgeStyle;rounded=0;orthogonalLoop=1;jettySize=auto;html=1;shadow=1;" edge="1" parent="1" source="AV-FN8kRpnLectql__CZ-12">
          <mxGeometry relative="1" as="geometry">
            <mxPoint x="400" y="370" as="targetPoint" />
            <Array as="points">
              <mxPoint x="370" y="250" />
              <mxPoint x="370" y="370" />
            </Array>
          </mxGeometry>
        </mxCell>
        <mxCell id="0-GCdpB-_zQCtAgoQO7X-3" style="edgeStyle=orthogonalEdgeStyle;rounded=0;orthogonalLoop=1;jettySize=auto;html=1;shadow=1;" edge="1" parent="1" source="AV-FN8kRpnLectql__CZ-12">
          <mxGeometry relative="1" as="geometry">
            <mxPoint x="400" y="400" as="targetPoint" />
            <Array as="points">
              <mxPoint x="360" y="280" />
              <mxPoint x="360" y="400" />
            </Array>
          </mxGeometry>
        </mxCell>
        <mxCell id="0-GCdpB-_zQCtAgoQO7X-7" style="edgeStyle=orthogonalEdgeStyle;rounded=0;orthogonalLoop=1;jettySize=auto;html=1;shadow=1;" edge="1" parent="1" source="AV-FN8kRpnLectql__CZ-12">
          <mxGeometry relative="1" as="geometry">
            <mxPoint x="400" y="430" as="targetPoint" />
            <Array as="points">
              <mxPoint x="350" y="310" />
              <mxPoint x="350" y="430" />
            </Array>
          </mxGeometry>
        </mxCell>
        <mxCell id="AV-FN8kRpnLectql__CZ-12" value="环境" style="rounded=0;whiteSpace=wrap;html=1;fillColor=#f5f5f5;fontColor=#333333;strokeColor=#666666;shadow=1;glass=0;" vertex="1" parent="1">
          <mxGeometry x="120" y="240" width="160" height="80" as="geometry" />
        </mxCell>
        <mxCell id="AV-FN8kRpnLectql__CZ-199" style="edgeStyle=none;rounded=0;orthogonalLoop=1;jettySize=auto;html=1;entryX=0;entryY=0.5;entryDx=0;entryDy=0;shadow=1;" edge="1" parent="1" source="AV-FN8kRpnLectql__CZ-13" target="AV-FN8kRpnLectql__CZ-171">
          <mxGeometry relative="1" as="geometry" />
        </mxCell>
        <mxCell id="0-GCdpB-_zQCtAgoQO7X-1" style="edgeStyle=orthogonalEdgeStyle;rounded=0;orthogonalLoop=1;jettySize=auto;html=1;shadow=1;" edge="1" parent="1" source="AV-FN8kRpnLectql__CZ-13">
          <mxGeometry relative="1" as="geometry">
            <mxPoint x="430" y="480" as="targetPoint" />
            <Array as="points">
              <mxPoint x="10" y="560" />
              <mxPoint x="430" y="560" />
            </Array>
          </mxGeometry>
        </mxCell>
        <mxCell id="AV-FN8kRpnLectql__CZ-13" value="`S_1`" style="text;strokeColor=none;align=center;fillColor=none;html=1;verticalAlign=middle;whiteSpace=wrap;rounded=0;shadow=1;" vertex="1" parent="1">
          <mxGeometry y="130" width="20" height="20" as="geometry" />
        </mxCell>
        <mxCell id="AV-FN8kRpnLectql__CZ-14" value="`a_1`" style="text;strokeColor=none;align=center;fillColor=none;html=1;verticalAlign=middle;whiteSpace=wrap;rounded=0;shadow=1;" vertex="1" parent="1">
          <mxGeometry x="110" y="210" width="20" height="20" as="geometry" />
        </mxCell>
        <mxCell id="AV-FN8kRpnLectql__CZ-15" value="`S_2`" style="text;strokeColor=none;align=center;fillColor=none;html=1;verticalAlign=middle;whiteSpace=wrap;rounded=0;shadow=1;" vertex="1" parent="1">
          <mxGeometry x="290" y="230" width="20" height="20" as="geometry" />
        </mxCell>
        <mxCell id="AV-FN8kRpnLectql__CZ-16" value="`a_2`" style="text;strokeColor=none;align=center;fillColor=none;html=1;verticalAlign=middle;whiteSpace=wrap;rounded=0;shadow=1;" vertex="1" parent="1">
          <mxGeometry x="140" y="210" width="20" height="20" as="geometry" />
        </mxCell>
        <mxCell id="AV-FN8kRpnLectql__CZ-17" value="`S_3`" style="text;strokeColor=none;align=center;fillColor=none;html=1;verticalAlign=middle;whiteSpace=wrap;rounded=0;shadow=1;" vertex="1" parent="1">
          <mxGeometry x="300" y="260" width="20" height="20" as="geometry" />
        </mxCell>
        <mxCell id="AV-FN8kRpnLectql__CZ-18" value="`a_{n-1}`" style="text;strokeColor=none;align=center;fillColor=none;html=1;verticalAlign=middle;whiteSpace=wrap;rounded=0;shadow=1;" vertex="1" parent="1">
          <mxGeometry x="190" y="210" width="30" height="20" as="geometry" />
        </mxCell>
        <mxCell id="AV-FN8kRpnLectql__CZ-19" value="`S_{n-1}`" style="text;strokeColor=none;align=center;fillColor=none;html=1;verticalAlign=middle;whiteSpace=wrap;rounded=0;shadow=1;" vertex="1" parent="1">
          <mxGeometry x="320" y="290" width="30" height="20" as="geometry" />
        </mxCell>
        <mxCell id="0-GCdpB-_zQCtAgoQO7X-12" style="edgeStyle=orthogonalEdgeStyle;rounded=0;orthogonalLoop=1;jettySize=auto;html=1;entryX=0;entryY=0.5;entryDx=0;entryDy=0;shadow=1;" edge="1" parent="1" source="AV-FN8kRpnLectql__CZ-21" target="0-GCdpB-_zQCtAgoQO7X-11">
          <mxGeometry relative="1" as="geometry">
            <Array as="points">
              <mxPoint x="200" y="640" />
            </Array>
          </mxGeometry>
        </mxCell>
        <mxCell id="AV-FN8kRpnLectql__CZ-21" value="&lt;div&gt;回报&lt;/div&gt;&lt;div&gt;`u_t=\sum_{k=t}^n\gamma^{k-t}\cdot r_k,\quad\forall t=1,\cdots,n.`&lt;br&gt;&lt;/div&gt;" style="rounded=0;whiteSpace=wrap;html=1;fillColor=#d5e8d4;strokeColor=#82b366;shadow=1;" vertex="1" parent="1">
          <mxGeometry x="80" y="400" width="240" height="80" as="geometry" />
        </mxCell>
        <mxCell id="AV-FN8kRpnLectql__CZ-22" value="`a_{n}`" style="text;strokeColor=none;align=center;fillColor=none;html=1;verticalAlign=middle;whiteSpace=wrap;rounded=0;shadow=1;" vertex="1" parent="1">
          <mxGeometry x="250" y="210" width="20" height="20" as="geometry" />
        </mxCell>
        <mxCell id="AV-FN8kRpnLectql__CZ-23" value="`r_{n}`" style="text;strokeColor=none;align=center;fillColor=none;html=1;verticalAlign=middle;whiteSpace=wrap;rounded=0;shadow=1;" vertex="1" parent="1">
          <mxGeometry x="250" y="340" width="40" height="40" as="geometry" />
        </mxCell>
        <mxCell id="AV-FN8kRpnLectql__CZ-24" style="edgeStyle=orthogonalEdgeStyle;rounded=0;orthogonalLoop=1;jettySize=auto;html=1;shadow=1;" edge="1" parent="1">
          <mxGeometry relative="1" as="geometry">
            <mxPoint x="230" y="320" as="sourcePoint" />
            <mxPoint x="230" y="400" as="targetPoint" />
            <Array as="points">
              <mxPoint x="230" y="350" />
              <mxPoint x="230" y="350" />
            </Array>
          </mxGeometry>
        </mxCell>
        <mxCell id="AV-FN8kRpnLectql__CZ-25" value="`r_{3}`" style="text;strokeColor=none;align=center;fillColor=none;html=1;verticalAlign=middle;whiteSpace=wrap;rounded=0;shadow=1;" vertex="1" parent="1">
          <mxGeometry x="220" y="340" width="40" height="40" as="geometry" />
        </mxCell>
        <mxCell id="AV-FN8kRpnLectql__CZ-26" style="edgeStyle=orthogonalEdgeStyle;rounded=0;orthogonalLoop=1;jettySize=auto;html=1;shadow=1;" edge="1" parent="1">
          <mxGeometry relative="1" as="geometry">
            <mxPoint x="200" y="320" as="sourcePoint" />
            <mxPoint x="200" y="400" as="targetPoint" />
            <Array as="points">
              <mxPoint x="200" y="350" />
              <mxPoint x="200" y="350" />
            </Array>
          </mxGeometry>
        </mxCell>
        <mxCell id="AV-FN8kRpnLectql__CZ-27" value="`r_{2}`" style="text;strokeColor=none;align=center;fillColor=none;html=1;verticalAlign=middle;whiteSpace=wrap;rounded=0;shadow=1;" vertex="1" parent="1">
          <mxGeometry x="190" y="340" width="40" height="40" as="geometry" />
        </mxCell>
        <mxCell id="AV-FN8kRpnLectql__CZ-28" style="edgeStyle=orthogonalEdgeStyle;rounded=0;orthogonalLoop=1;jettySize=auto;html=1;shadow=1;" edge="1" parent="1">
          <mxGeometry relative="1" as="geometry">
            <mxPoint x="140" y="320" as="sourcePoint" />
            <mxPoint x="140" y="400" as="targetPoint" />
            <Array as="points">
              <mxPoint x="140" y="350" />
              <mxPoint x="140" y="350" />
            </Array>
          </mxGeometry>
        </mxCell>
        <mxCell id="AV-FN8kRpnLectql__CZ-29" value="`r_{1}`" style="text;strokeColor=none;align=center;fillColor=none;html=1;verticalAlign=middle;whiteSpace=wrap;rounded=0;shadow=1;" vertex="1" parent="1">
          <mxGeometry x="130" y="340" width="40" height="40" as="geometry" />
        </mxCell>
        <mxCell id="AV-FN8kRpnLectql__CZ-214" style="edgeStyle=orthogonalEdgeStyle;rounded=0;orthogonalLoop=1;jettySize=auto;html=1;entryX=0.25;entryY=0;entryDx=0;entryDy=0;shadow=1;" edge="1" parent="1" source="AV-FN8kRpnLectql__CZ-31" target="AV-FN8kRpnLectql__CZ-171">
          <mxGeometry relative="1" as="geometry">
            <Array as="points">
              <mxPoint x="640" y="30" />
              <mxPoint x="120" y="30" />
            </Array>
          </mxGeometry>
        </mxCell>
        <mxCell id="AV-FN8kRpnLectql__CZ-31" value="&lt;div&gt;策略网络更新&lt;/div&gt;&lt;div&gt;`\theta_\text{new}\leftarrow\theta_\text{now}+\beta\cdot\sum_{t=1}^n\gamma^{t-1} \cdot \underbrace{\delta_t\cdot\nabla_{\theta\ln\pi(a_t,s_t;\theta_\text{now})}}_{\text{即随机梯度 }-\tilde{g}(s_t,a_t;\theta_{\text{now}})}`&lt;br&gt;&lt;/div&gt;" style="rounded=0;whiteSpace=wrap;html=1;fillColor=#ffe6cc;strokeColor=#d79b00;shadow=1;" vertex="1" parent="1">
          <mxGeometry x="480" y="200" width="280" height="80" as="geometry" />
        </mxCell>
        <mxCell id="AV-FN8kRpnLectql__CZ-32" value="`\nabla_{\theta}\ln\pi(a_t, s_t;\theta_{\text{now}}),\quad\forall=1,\cdots,n.`" style="text;strokeColor=none;align=center;fillColor=none;html=1;verticalAlign=middle;whiteSpace=wrap;rounded=0;shadow=1;" vertex="1" parent="1">
          <mxGeometry x="300" y="30" width="200" height="30" as="geometry" />
        </mxCell>
        <mxCell id="AV-FN8kRpnLectql__CZ-33" value="`\theta_{\text{new}}`" style="text;strokeColor=none;align=center;fillColor=none;html=1;verticalAlign=middle;whiteSpace=wrap;rounded=0;shadow=1;" vertex="1" parent="1">
          <mxGeometry x="640" y="170" width="30" height="30" as="geometry" />
        </mxCell>
        <mxCell id="AV-FN8kRpnLectql__CZ-170" value="" style="group;shadow=1;glass=0;rounded=0;" vertex="1" connectable="0" parent="1">
          <mxGeometry x="40" y="80" width="320" height="120" as="geometry" />
        </mxCell>
        <mxCell id="AV-FN8kRpnLectql__CZ-171" value="&lt;div&gt;策略网络&lt;/div&gt;&lt;div&gt;&lt;br&gt;&lt;/div&gt;&lt;div&gt;&lt;br&gt;&lt;/div&gt;&lt;div&gt;&lt;br&gt;&lt;/div&gt;&lt;div&gt;&lt;br&gt;&lt;/div&gt;&lt;div&gt;&lt;br&gt;&lt;/div&gt;&lt;div&gt;`a_t\sim\pi(\cdot|s_t;\theta_\text{now})`&lt;br&gt;&lt;/div&gt;" style="rounded=0;whiteSpace=wrap;html=1;fillColor=#dae8fc;strokeColor=#6c8ebf;shadow=1;" vertex="1" parent="AV-FN8kRpnLectql__CZ-170">
          <mxGeometry width="320" height="120" as="geometry" />
        </mxCell>
        <mxCell id="0-GCdpB-_zQCtAgoQO7X-24" value="" style="group;glass=0;rounded=1;" vertex="1" connectable="0" parent="AV-FN8kRpnLectql__CZ-170">
          <mxGeometry x="15.32" y="32" width="289.36" height="56" as="geometry" />
        </mxCell>
        <mxCell id="0-GCdpB-_zQCtAgoQO7X-25" value="" style="rounded=0;whiteSpace=wrap;html=1;fillColor=#f5f5f5;fontColor=#333333;strokeColor=#666666;" vertex="1" parent="0-GCdpB-_zQCtAgoQO7X-24">
          <mxGeometry width="289.36" height="56" as="geometry" />
        </mxCell>
        <mxCell id="0-GCdpB-_zQCtAgoQO7X-26" value="" style="html=1;shape=mxgraph.basic.isocube;isoAngle=15;flipH=1;flipV=0;fillColor=#d5e8d4;strokeColor=#82b366;shadow=0;fontSize=5;sketch=1;curveFitting=1;jiggle=2;" vertex="1" parent="0-GCdpB-_zQCtAgoQO7X-24">
          <mxGeometry x="9.360000000000014" y="12" width="27.852998065764023" height="20" as="geometry" />
        </mxCell>
        <mxCell id="0-GCdpB-_zQCtAgoQO7X-27" value="巻积网络" style="rounded=0;whiteSpace=wrap;html=1;fillColor=#dae8fc;strokeColor=#6c8ebf;shadow=0;fontSize=5;sketch=1;curveFitting=1;jiggle=2;" vertex="1" parent="0-GCdpB-_zQCtAgoQO7X-24">
          <mxGeometry x="51.91319148936171" y="14" width="42.5531914893617" height="16" as="geometry" />
        </mxCell>
        <mxCell id="0-GCdpB-_zQCtAgoQO7X-28" style="rounded=0;orthogonalLoop=1;jettySize=auto;html=1;entryX=0;entryY=0.5;entryDx=0;entryDy=0;fontSize=5;sketch=1;curveFitting=1;jiggle=2;" edge="1" parent="0-GCdpB-_zQCtAgoQO7X-24" source="0-GCdpB-_zQCtAgoQO7X-26" target="0-GCdpB-_zQCtAgoQO7X-27">
          <mxGeometry relative="1" as="geometry" />
        </mxCell>
        <mxCell id="0-GCdpB-_zQCtAgoQO7X-29" value="全连接网络" style="rounded=0;whiteSpace=wrap;html=1;fillColor=#dae8fc;strokeColor=#6c8ebf;shadow=0;fontSize=5;sketch=1;curveFitting=1;jiggle=2;" vertex="1" parent="0-GCdpB-_zQCtAgoQO7X-24">
          <mxGeometry x="137.01957446808512" y="14" width="42.5531914893617" height="16" as="geometry" />
        </mxCell>
        <mxCell id="0-GCdpB-_zQCtAgoQO7X-30" value="`s`" style="text;strokeColor=none;align=center;fillColor=none;html=1;verticalAlign=middle;whiteSpace=wrap;rounded=0;shadow=0;fontSize=5;sketch=1;curveFitting=1;jiggle=2;" vertex="1" parent="0-GCdpB-_zQCtAgoQO7X-24">
          <mxGeometry x="14.772765957446836" y="30" width="17.02127659574468" height="16" as="geometry" />
        </mxCell>
        <mxCell id="0-GCdpB-_zQCtAgoQO7X-31" value="特征向量" style="text;strokeColor=none;align=center;fillColor=none;html=1;verticalAlign=middle;whiteSpace=wrap;rounded=0;shadow=0;fontSize=5;sketch=1;curveFitting=1;jiggle=2;" vertex="1" parent="0-GCdpB-_zQCtAgoQO7X-24">
          <mxGeometry x="102.97702127659576" y="40" width="25.53191489361702" height="8" as="geometry" />
        </mxCell>
        <mxCell id="0-GCdpB-_zQCtAgoQO7X-32" value="" style="group;fontSize=5;sketch=1;curveFitting=1;jiggle=2;" vertex="1" connectable="0" parent="0-GCdpB-_zQCtAgoQO7X-24">
          <mxGeometry x="111.4876595744681" y="6" width="8.51063829787234" height="32" as="geometry" />
        </mxCell>
        <mxCell id="0-GCdpB-_zQCtAgoQO7X-33" value="" style="group;fillColor=#60a917;strokeColor=#2D7600;fontColor=#ffffff;container=0;fontSize=5;sketch=1;curveFitting=1;jiggle=2;" vertex="1" connectable="0" parent="0-GCdpB-_zQCtAgoQO7X-32">
          <mxGeometry width="8.51063829787234" height="32" as="geometry" />
        </mxCell>
        <mxCell id="0-GCdpB-_zQCtAgoQO7X-34" value="" style="whiteSpace=wrap;html=1;aspect=fixed;fillColor=#60a917;fontColor=#ffffff;strokeColor=#2D7600;fontSize=5;sketch=1;curveFitting=1;jiggle=2;" vertex="1" parent="0-GCdpB-_zQCtAgoQO7X-32">
          <mxGeometry width="8" height="8" as="geometry" />
        </mxCell>
        <mxCell id="0-GCdpB-_zQCtAgoQO7X-35" value="" style="whiteSpace=wrap;html=1;aspect=fixed;fillColor=#60a917;fontColor=#ffffff;strokeColor=#2D7600;fontSize=5;sketch=1;curveFitting=1;jiggle=2;" vertex="1" parent="0-GCdpB-_zQCtAgoQO7X-32">
          <mxGeometry y="8" width="8" height="8" as="geometry" />
        </mxCell>
        <mxCell id="0-GCdpB-_zQCtAgoQO7X-36" style="edgeStyle=orthogonalEdgeStyle;rounded=0;orthogonalLoop=1;jettySize=auto;html=1;exitX=0.5;exitY=0;exitDx=0;exitDy=0;sketch=1;curveFitting=1;jiggle=2;" edge="1" parent="0-GCdpB-_zQCtAgoQO7X-32" source="0-GCdpB-_zQCtAgoQO7X-37">
          <mxGeometry relative="1" as="geometry">
            <mxPoint x="4.035131123206355" y="16.046511627906966" as="targetPoint" />
          </mxGeometry>
        </mxCell>
        <mxCell id="0-GCdpB-_zQCtAgoQO7X-37" value="" style="whiteSpace=wrap;html=1;aspect=fixed;fillColor=#60a917;fontColor=#ffffff;strokeColor=#2D7600;fontSize=5;sketch=1;curveFitting=1;jiggle=2;" vertex="1" parent="0-GCdpB-_zQCtAgoQO7X-32">
          <mxGeometry y="16" width="8" height="8" as="geometry" />
        </mxCell>
        <mxCell id="0-GCdpB-_zQCtAgoQO7X-38" value="" style="whiteSpace=wrap;html=1;aspect=fixed;fillColor=#60a917;fontColor=#ffffff;strokeColor=#2D7600;fontSize=5;sketch=1;curveFitting=1;jiggle=2;" vertex="1" parent="0-GCdpB-_zQCtAgoQO7X-32">
          <mxGeometry y="24" width="8" height="8" as="geometry" />
        </mxCell>
        <mxCell id="0-GCdpB-_zQCtAgoQO7X-39" style="rounded=0;orthogonalLoop=1;jettySize=auto;html=1;entryX=0;entryY=0;entryDx=0;entryDy=0;sketch=1;curveFitting=1;jiggle=2;" edge="1" parent="0-GCdpB-_zQCtAgoQO7X-24" source="0-GCdpB-_zQCtAgoQO7X-27" target="0-GCdpB-_zQCtAgoQO7X-37">
          <mxGeometry relative="1" as="geometry" />
        </mxCell>
        <mxCell id="0-GCdpB-_zQCtAgoQO7X-40" style="rounded=0;orthogonalLoop=1;jettySize=auto;html=1;entryX=0;entryY=0.5;entryDx=0;entryDy=0;fontSize=5;sketch=1;curveFitting=1;jiggle=2;exitX=1;exitY=0;exitDx=0;exitDy=0;" edge="1" parent="0-GCdpB-_zQCtAgoQO7X-24" source="0-GCdpB-_zQCtAgoQO7X-37" target="0-GCdpB-_zQCtAgoQO7X-29">
          <mxGeometry relative="1" as="geometry" />
        </mxCell>
        <mxCell id="0-GCdpB-_zQCtAgoQO7X-41" value="&lt;div&gt;Softmax&lt;/div&gt;&lt;div&gt;激活函数&lt;br&gt;&lt;/div&gt;" style="rounded=0;whiteSpace=wrap;html=1;fillColor=#dae8fc;strokeColor=#6c8ebf;shadow=0;fontSize=5;sketch=1;curveFitting=1;jiggle=2;" vertex="1" parent="0-GCdpB-_zQCtAgoQO7X-24">
          <mxGeometry x="199.35957446808516" y="14" width="42.5531914893617" height="16" as="geometry" />
        </mxCell>
        <mxCell id="0-GCdpB-_zQCtAgoQO7X-42" style="rounded=0;orthogonalLoop=1;jettySize=auto;html=1;entryX=0;entryY=0.5;entryDx=0;entryDy=0;sketch=1;curveFitting=1;jiggle=2;" edge="1" parent="0-GCdpB-_zQCtAgoQO7X-24" source="0-GCdpB-_zQCtAgoQO7X-29" target="0-GCdpB-_zQCtAgoQO7X-41">
          <mxGeometry relative="1" as="geometry" />
        </mxCell>
        <mxCell id="0-GCdpB-_zQCtAgoQO7X-43" value="" style="whiteSpace=wrap;html=1;aspect=fixed;fillColor=#fa6800;strokeColor=#C73500;fontSize=5;sketch=1;curveFitting=1;jiggle=2;fontColor=#000000;" vertex="1" parent="0-GCdpB-_zQCtAgoQO7X-24">
          <mxGeometry x="261.35765957446813" y="10" width="8" height="8" as="geometry" />
        </mxCell>
        <mxCell id="0-GCdpB-_zQCtAgoQO7X-44" style="edgeStyle=orthogonalEdgeStyle;rounded=0;orthogonalLoop=1;jettySize=auto;html=1;exitX=0.5;exitY=0;exitDx=0;exitDy=0;fillColor=#fa6800;strokeColor=#C73500;sketch=1;curveFitting=1;jiggle=2;" edge="1" parent="0-GCdpB-_zQCtAgoQO7X-24" source="0-GCdpB-_zQCtAgoQO7X-45">
          <mxGeometry relative="1" as="geometry">
            <mxPoint x="265.3927906976745" y="18.046511627906966" as="targetPoint" />
          </mxGeometry>
        </mxCell>
        <mxCell id="0-GCdpB-_zQCtAgoQO7X-45" value="" style="whiteSpace=wrap;html=1;aspect=fixed;fillColor=#fa6800;strokeColor=#C73500;fontSize=5;sketch=1;curveFitting=1;jiggle=2;fontColor=#000000;" vertex="1" parent="0-GCdpB-_zQCtAgoQO7X-24">
          <mxGeometry x="261.35765957446813" y="18" width="8" height="8" as="geometry" />
        </mxCell>
        <mxCell id="0-GCdpB-_zQCtAgoQO7X-46" style="rounded=0;orthogonalLoop=1;jettySize=auto;html=1;entryX=0;entryY=0.5;entryDx=0;entryDy=0;sketch=1;curveFitting=1;jiggle=2;" edge="1" parent="0-GCdpB-_zQCtAgoQO7X-24" source="0-GCdpB-_zQCtAgoQO7X-41" target="0-GCdpB-_zQCtAgoQO7X-45">
          <mxGeometry relative="1" as="geometry" />
        </mxCell>
        <mxCell id="0-GCdpB-_zQCtAgoQO7X-47" value="" style="whiteSpace=wrap;html=1;aspect=fixed;fillColor=#fa6800;strokeColor=#C73500;fontSize=5;sketch=1;curveFitting=1;jiggle=2;fontColor=#000000;" vertex="1" parent="0-GCdpB-_zQCtAgoQO7X-24">
          <mxGeometry x="261.35765957446813" y="26" width="8" height="8" as="geometry" />
        </mxCell>
        <mxCell id="0-GCdpB-_zQCtAgoQO7X-48" value="`f=\pi(\cdot |&amp;nbsp; s;\theta)`" style="text;strokeColor=none;align=center;fillColor=none;html=1;verticalAlign=middle;whiteSpace=wrap;rounded=0;shadow=0;fontSize=5;sketch=1;curveFitting=1;jiggle=2;" vertex="1" parent="0-GCdpB-_zQCtAgoQO7X-24">
          <mxGeometry x="246.36" y="38" width="36.77" height="8" as="geometry" />
        </mxCell>
        <mxCell id="AV-FN8kRpnLectql__CZ-198" style="rounded=0;orthogonalLoop=1;jettySize=auto;html=1;edgeStyle=orthogonalEdgeStyle;shadow=1;" edge="1" parent="1" source="AV-FN8kRpnLectql__CZ-171" target="AV-FN8kRpnLectql__CZ-12">
          <mxGeometry relative="1" as="geometry">
            <Array as="points">
              <mxPoint x="130" y="230" />
              <mxPoint x="130" y="230" />
            </Array>
          </mxGeometry>
        </mxCell>
        <mxCell id="AV-FN8kRpnLectql__CZ-209" style="edgeStyle=orthogonalEdgeStyle;rounded=0;orthogonalLoop=1;jettySize=auto;html=1;shadow=1;" edge="1" parent="1" source="AV-FN8kRpnLectql__CZ-171" target="AV-FN8kRpnLectql__CZ-12">
          <mxGeometry relative="1" as="geometry">
            <Array as="points">
              <mxPoint x="160" y="220" />
              <mxPoint x="160" y="220" />
            </Array>
          </mxGeometry>
        </mxCell>
        <mxCell id="AV-FN8kRpnLectql__CZ-210" style="edgeStyle=orthogonalEdgeStyle;rounded=0;orthogonalLoop=1;jettySize=auto;html=1;shadow=1;" edge="1" parent="1" source="AV-FN8kRpnLectql__CZ-171" target="AV-FN8kRpnLectql__CZ-12">
          <mxGeometry relative="1" as="geometry">
            <Array as="points">
              <mxPoint x="270" y="220" />
              <mxPoint x="270" y="220" />
            </Array>
          </mxGeometry>
        </mxCell>
        <mxCell id="AV-FN8kRpnLectql__CZ-212" style="edgeStyle=orthogonalEdgeStyle;rounded=0;orthogonalLoop=1;jettySize=auto;html=1;shadow=1;" edge="1" parent="1" source="AV-FN8kRpnLectql__CZ-171" target="AV-FN8kRpnLectql__CZ-12">
          <mxGeometry relative="1" as="geometry">
            <Array as="points">
              <mxPoint x="220" y="220" />
              <mxPoint x="220" y="220" />
            </Array>
          </mxGeometry>
        </mxCell>
        <mxCell id="AV-FN8kRpnLectql__CZ-213" style="edgeStyle=orthogonalEdgeStyle;rounded=0;orthogonalLoop=1;jettySize=auto;html=1;shadow=1;" edge="1" parent="1" source="AV-FN8kRpnLectql__CZ-171" target="AV-FN8kRpnLectql__CZ-31">
          <mxGeometry relative="1" as="geometry">
            <Array as="points">
              <mxPoint x="200" y="60" />
              <mxPoint x="560" y="60" />
            </Array>
          </mxGeometry>
        </mxCell>
        <mxCell id="0-GCdpB-_zQCtAgoQO7X-17" style="edgeStyle=orthogonalEdgeStyle;rounded=0;orthogonalLoop=1;jettySize=auto;html=1;shadow=1;" edge="1" parent="1" source="0-GCdpB-_zQCtAgoQO7X-11" target="AV-FN8kRpnLectql__CZ-31">
          <mxGeometry relative="1" as="geometry">
            <Array as="points">
              <mxPoint x="680" y="640" />
            </Array>
          </mxGeometry>
        </mxCell>
        <mxCell id="0-GCdpB-_zQCtAgoQO7X-11" value="&lt;div&gt;TD error&lt;/div&gt;&lt;div&gt;&lt;br&gt;&lt;/div&gt;&lt;div&gt;`\delta_t=\hat{v_t}-u_t\text{,}\forall t=1,\cdots,n`&lt;br&gt;&lt;/div&gt;" style="rounded=0;whiteSpace=wrap;html=1;fillColor=#fff2cc;strokeColor=#d6b656;shadow=1;" vertex="1" parent="1">
          <mxGeometry x="420" y="600" width="200" height="80" as="geometry" />
        </mxCell>
        <mxCell id="0-GCdpB-_zQCtAgoQO7X-13" style="edgeStyle=orthogonalEdgeStyle;rounded=0;orthogonalLoop=1;jettySize=auto;html=1;entryX=0.5;entryY=0;entryDx=0;entryDy=0;shadow=1;" edge="1" parent="1" target="0-GCdpB-_zQCtAgoQO7X-11">
          <mxGeometry relative="1" as="geometry">
            <mxPoint x="520" y="480" as="sourcePoint" />
          </mxGeometry>
        </mxCell>
        <mxCell id="0-GCdpB-_zQCtAgoQO7X-14" value="`\hat{v_t},\forall t=1,\cdots,n`" style="text;strokeColor=none;align=center;fillColor=none;html=1;verticalAlign=middle;whiteSpace=wrap;rounded=0;shadow=1;" vertex="1" parent="1">
          <mxGeometry x="520" y="480" width="110" height="30" as="geometry" />
        </mxCell>
        <mxCell id="0-GCdpB-_zQCtAgoQO7X-16" value="`u_t,\forall t=1,\cdots,n`" style="text;strokeColor=none;align=center;fillColor=none;html=1;verticalAlign=middle;whiteSpace=wrap;rounded=0;shadow=1;" vertex="1" parent="1">
          <mxGeometry x="200" y="480" width="110" height="30" as="geometry" />
        </mxCell>
        <mxCell id="0-GCdpB-_zQCtAgoQO7X-18" value="`\delta_t,\forall t=1,\cdots,n`" style="text;whiteSpace=wrap;shadow=1;" vertex="1" parent="1">
          <mxGeometry x="630" y="640" width="100" height="30" as="geometry" />
        </mxCell>
        <mxCell id="0-GCdpB-_zQCtAgoQO7X-136" value="" style="group" vertex="1" connectable="0" parent="1">
          <mxGeometry x="400" y="360" width="240" height="120" as="geometry" />
        </mxCell>
        <mxCell id="0-GCdpB-_zQCtAgoQO7X-114" value="&lt;div&gt;价值网络&lt;/div&gt;&lt;div&gt;&lt;br&gt;&lt;/div&gt;&lt;div&gt;&lt;br&gt;&lt;/div&gt;&lt;div&gt;&lt;br&gt;&lt;/div&gt;&lt;div&gt;&lt;br&gt;&lt;/div&gt;&lt;div&gt;&lt;br&gt;&lt;/div&gt;&lt;div&gt;`\hat v_t=v(s_t;w_\text{now}),\quad\forall t=1,\cdots,n.)`&lt;br&gt;&lt;/div&gt;" style="rounded=0;whiteSpace=wrap;html=1;shadow=0;fillColor=#f9f7ed;strokeColor=#36393d;" vertex="1" parent="0-GCdpB-_zQCtAgoQO7X-136">
          <mxGeometry width="240" height="120" as="geometry" />
        </mxCell>
        <mxCell id="0-GCdpB-_zQCtAgoQO7X-116" value="" style="rounded=0;whiteSpace=wrap;html=1;fillColor=#eeeeee;strokeColor=#36393d;" vertex="1" parent="0-GCdpB-_zQCtAgoQO7X-136">
          <mxGeometry x="10" y="30" width="220" height="60" as="geometry" />
        </mxCell>
        <mxCell id="0-GCdpB-_zQCtAgoQO7X-118" value="" style="html=1;shape=mxgraph.basic.isocube;isoAngle=15;flipH=1;flipV=0;fillColor=#d5e8d4;strokeColor=#82b366;shadow=0;fontSize=5;sketch=1;curveFitting=1;jiggle=2;" vertex="1" parent="0-GCdpB-_zQCtAgoQO7X-136">
          <mxGeometry x="20" y="46" width="27.852998065764023" height="20" as="geometry" />
        </mxCell>
        <mxCell id="0-GCdpB-_zQCtAgoQO7X-120" value="巻积网络" style="rounded=0;whiteSpace=wrap;html=1;fillColor=#dae8fc;strokeColor=#6c8ebf;shadow=0;fontSize=5;sketch=1;curveFitting=1;jiggle=2;" vertex="1" parent="0-GCdpB-_zQCtAgoQO7X-136">
          <mxGeometry x="62.553191489361694" y="48" width="42.5531914893617" height="16" as="geometry" />
        </mxCell>
        <mxCell id="0-GCdpB-_zQCtAgoQO7X-121" style="rounded=0;orthogonalLoop=1;jettySize=auto;html=1;entryX=0;entryY=0.5;entryDx=0;entryDy=0;fontSize=5;sketch=1;curveFitting=1;jiggle=2;" edge="1" parent="0-GCdpB-_zQCtAgoQO7X-136" source="0-GCdpB-_zQCtAgoQO7X-118" target="0-GCdpB-_zQCtAgoQO7X-120">
          <mxGeometry relative="1" as="geometry" />
        </mxCell>
        <mxCell id="0-GCdpB-_zQCtAgoQO7X-122" value="全连接网络" style="rounded=0;whiteSpace=wrap;html=1;fillColor=#dae8fc;strokeColor=#6c8ebf;shadow=0;fontSize=5;sketch=1;curveFitting=1;jiggle=2;" vertex="1" parent="0-GCdpB-_zQCtAgoQO7X-136">
          <mxGeometry x="147.6595744680851" y="48" width="42.5531914893617" height="16" as="geometry" />
        </mxCell>
        <mxCell id="0-GCdpB-_zQCtAgoQO7X-123" value="" style="ellipse;whiteSpace=wrap;html=1;aspect=fixed;fillColor=#e1d5e7;strokeColor=#9673a6;shadow=0;fontSize=5;sketch=1;curveFitting=1;jiggle=2;" vertex="1" parent="0-GCdpB-_zQCtAgoQO7X-136">
          <mxGeometry x="207.23791102514508" y="52" width="8" height="8" as="geometry" />
        </mxCell>
        <mxCell id="0-GCdpB-_zQCtAgoQO7X-124" style="rounded=0;orthogonalLoop=1;jettySize=auto;html=1;entryX=0;entryY=0.5;entryDx=0;entryDy=0;fontSize=5;sketch=1;curveFitting=1;jiggle=2;" edge="1" parent="0-GCdpB-_zQCtAgoQO7X-136" source="0-GCdpB-_zQCtAgoQO7X-122" target="0-GCdpB-_zQCtAgoQO7X-123">
          <mxGeometry relative="1" as="geometry" />
        </mxCell>
        <mxCell id="0-GCdpB-_zQCtAgoQO7X-125" value="`s`" style="text;strokeColor=none;align=center;fillColor=none;html=1;verticalAlign=middle;whiteSpace=wrap;rounded=0;shadow=0;fontSize=5;sketch=1;curveFitting=1;jiggle=2;" vertex="1" parent="0-GCdpB-_zQCtAgoQO7X-136">
          <mxGeometry x="25.412765957446823" y="64" width="17.02127659574468" height="16" as="geometry" />
        </mxCell>
        <mxCell id="0-GCdpB-_zQCtAgoQO7X-126" value="特征向量" style="text;strokeColor=none;align=center;fillColor=none;html=1;verticalAlign=middle;whiteSpace=wrap;rounded=0;shadow=0;fontSize=5;sketch=1;curveFitting=1;jiggle=2;" vertex="1" parent="0-GCdpB-_zQCtAgoQO7X-136">
          <mxGeometry x="113.61702127659578" y="72" width="25.53191489361702" height="8" as="geometry" />
        </mxCell>
        <mxCell id="0-GCdpB-_zQCtAgoQO7X-127" value="价值" style="text;strokeColor=none;align=center;fillColor=none;html=1;verticalAlign=middle;whiteSpace=wrap;rounded=0;shadow=0;fontSize=5;sketch=1;curveFitting=1;jiggle=2;" vertex="1" parent="0-GCdpB-_zQCtAgoQO7X-136">
          <mxGeometry x="202.97872340425533" y="64" width="17.02127659574468" height="8" as="geometry" />
        </mxCell>
        <mxCell id="0-GCdpB-_zQCtAgoQO7X-128" value="" style="group;fontSize=5;sketch=1;curveFitting=1;jiggle=2;" vertex="1" connectable="0" parent="0-GCdpB-_zQCtAgoQO7X-136">
          <mxGeometry x="122.12765957446811" y="40" width="8.51063829787234" height="32" as="geometry" />
        </mxCell>
        <mxCell id="0-GCdpB-_zQCtAgoQO7X-129" value="" style="group;fillColor=#60a917;strokeColor=#2D7600;fontColor=#ffffff;container=0;fontSize=5;sketch=1;curveFitting=1;jiggle=2;" vertex="1" connectable="0" parent="0-GCdpB-_zQCtAgoQO7X-128">
          <mxGeometry width="8.51063829787234" height="32" as="geometry" />
        </mxCell>
        <mxCell id="0-GCdpB-_zQCtAgoQO7X-130" value="" style="whiteSpace=wrap;html=1;aspect=fixed;fillColor=#60a917;fontColor=#ffffff;strokeColor=#2D7600;fontSize=5;sketch=1;curveFitting=1;jiggle=2;" vertex="1" parent="0-GCdpB-_zQCtAgoQO7X-128">
          <mxGeometry width="8" height="8" as="geometry" />
        </mxCell>
        <mxCell id="0-GCdpB-_zQCtAgoQO7X-131" value="" style="whiteSpace=wrap;html=1;aspect=fixed;fillColor=#60a917;fontColor=#ffffff;strokeColor=#2D7600;fontSize=5;sketch=1;curveFitting=1;jiggle=2;" vertex="1" parent="0-GCdpB-_zQCtAgoQO7X-128">
          <mxGeometry y="8" width="8" height="8" as="geometry" />
        </mxCell>
        <mxCell id="0-GCdpB-_zQCtAgoQO7X-132" style="edgeStyle=orthogonalEdgeStyle;rounded=0;orthogonalLoop=1;jettySize=auto;html=1;exitX=0.5;exitY=0;exitDx=0;exitDy=0;" edge="1" parent="0-GCdpB-_zQCtAgoQO7X-128" source="0-GCdpB-_zQCtAgoQO7X-133">
          <mxGeometry relative="1" as="geometry">
            <mxPoint x="4.035131123206355" y="16.046511627906966" as="targetPoint" />
          </mxGeometry>
        </mxCell>
        <mxCell id="0-GCdpB-_zQCtAgoQO7X-133" value="" style="whiteSpace=wrap;html=1;aspect=fixed;fillColor=#60a917;fontColor=#ffffff;strokeColor=#2D7600;fontSize=5;sketch=1;curveFitting=1;jiggle=2;" vertex="1" parent="0-GCdpB-_zQCtAgoQO7X-128">
          <mxGeometry y="16" width="8" height="8" as="geometry" />
        </mxCell>
        <mxCell id="0-GCdpB-_zQCtAgoQO7X-134" value="" style="whiteSpace=wrap;html=1;aspect=fixed;fillColor=#60a917;fontColor=#ffffff;strokeColor=#2D7600;fontSize=5;sketch=1;curveFitting=1;jiggle=2;" vertex="1" parent="0-GCdpB-_zQCtAgoQO7X-128">
          <mxGeometry y="24" width="8" height="8" as="geometry" />
        </mxCell>
        <mxCell id="0-GCdpB-_zQCtAgoQO7X-119" style="rounded=0;orthogonalLoop=1;jettySize=auto;html=1;entryX=0;entryY=0;entryDx=0;entryDy=0;sketch=1;curveFitting=1;jiggle=2;" edge="1" parent="0-GCdpB-_zQCtAgoQO7X-136" source="0-GCdpB-_zQCtAgoQO7X-120" target="0-GCdpB-_zQCtAgoQO7X-133">
          <mxGeometry relative="1" as="geometry" />
        </mxCell>
        <mxCell id="0-GCdpB-_zQCtAgoQO7X-135" style="edgeStyle=orthogonalEdgeStyle;rounded=0;orthogonalLoop=1;jettySize=auto;html=1;entryX=0;entryY=0.5;entryDx=0;entryDy=0;fontSize=5;sketch=1;curveFitting=1;jiggle=2;" edge="1" parent="0-GCdpB-_zQCtAgoQO7X-136" source="0-GCdpB-_zQCtAgoQO7X-133" target="0-GCdpB-_zQCtAgoQO7X-122">
          <mxGeometry relative="1" as="geometry">
            <Array as="points">
              <mxPoint x="139.14893617021278" y="56" />
              <mxPoint x="139.14893617021278" y="56" />
            </Array>
          </mxGeometry>
        </mxCell>
      </root>
    </mxGraphModel>
  </diagram>
</mxfile>
